<svg t="1501658554954" class="icon" style="" viewBox="0 0 1025 1024" version="1.1" xmlns="http://www.w3.org/2000/svg" p-id="3562" xmlns:xlink="http://www.w3.org/1999/xlink" width="48.046875" height="48"><defs><style type="text/css"></style></defs><path d="M1013.5894 361.1875 1013.5894 361.1875c-11.5625-32.9375-40.8125-56.5875-76.125-61.8375L699.2144 264.5 595.7769 52.875C579.9644 20.75 546.1144 0 509.4019 0c-36.625 0-70.4625 20.75-86.2125 52.875L319.7144 264.5 81.5519 299.4375c-35.5 5.0625-64.75 28.8125-76.3125 61.875-11.5875 33.4375-3 69.7125 22.5 94.775l174.9 172.0875-40.5875 238.375c-5.9625 34.9375 9.5625 70.8125 39.65 91.25 29.4625 19.8125 68.8375 22 100.4 5.3125l207.3375-109.875 207.5625 109.875c14.0625 7.5625 29.75 11.375 45.625 11.375 19.5625 0 38.4375-5.625 54.8125-16.8125 29.875-20.3125 45.5-56.0625 39.4375-91.125l-40.625-238.25 175-172.15C1016.7144 431.025 1025.2144 394.625 1013.5894 361.1875z" p-id="3563"></path></svg>