<svg t="1501658540811" class="icon" style="" viewBox="0 0 1024 1024" version="1.1" xmlns="http://www.w3.org/2000/svg" p-id="3453" xmlns:xlink="http://www.w3.org/1999/xlink" width="48" height="48"><defs><style type="text/css"></style></defs><path d="M511.966 72.39c10.818 0 20.642 5.765 25.007 14.69l115.865 235.194c6.685 13.585 19.85 23.062 35.065 25.275l266.519 38.777c10.03 1.445 18.595 8.157 21.72 16.98 3.01 8.555 0.71 17.94-6.055 24.52L774.798 618.558c-10.66 10.42-15.475 25.22-12.995 39.75l45.28 264.519c1.57 9.22-2.585 18.38-10.615 23.8-4.865 3.27-10.555 4.95-16.45 4.95-4.79 0-9.53-1.15-13.61-3.26l-232.354-122.42c-6.875-3.58-14.485-5.42-22.087-5.42-7.582 0-15.162 1.84-22.062 5.42l-232.087 122.32c-4.24 2.21-9.057 3.37-13.902 3.37-5.787 0-11.58-1.74-16.135-4.8-8.292-5.58-12.477-14.79-10.872-24.01l45.277-264.469c2.48-14.53-2.367-29.33-13.027-39.75L53.845 427.761c-6.715-6.542-9.005-15.9-6.03-24.362 3.132-8.915 11.687-15.627 21.797-17.072l266.444-38.777c15.295-2.212 28.43-11.692 35.12-25.275L486.956 87.13C491.379 78.167 501.224 72.39 511.966 72.39M511.966 26.872c-28.642 0-54.705 15.755-66.92 40.447L329.212 302.517 62.767 341.282c-27.377 3.938-50.15 22.297-58.945 47.245-8.792 25.072-2.155 52.687 17.192 71.512l195.262 190.74-45.282 264.469c-4.607 26.7 7.187 53.4 30.325 69.03 12.745 8.48 27.642 12.85 42.595 12.85 12.27 0 24.617-2.95 35.805-8.74l232.274-122.37 232.324 122.36c11.16 5.8 23.485 8.75 35.72 8.75 14.99 0 29.885-4.37 42.625-12.85 23.145-15.63 34.915-42.33 30.33-69.03l-45.28-264.469 195.289-190.745c19.32-18.832 25.98-46.437 17.16-71.51-8.825-24.945-31.59-43.305-58.975-47.245l-266.439-38.762L578.914 67.32C566.779 42.63 540.659 26.872 511.966 26.872L511.966 26.872z" p-id="3454"></path></svg>