<svg t="1500516413219" class="icon" style="" viewBox="0 0 1024 1024" version="1.1" xmlns="http://www.w3.org/2000/svg" p-id="6878" xmlns:xlink="http://www.w3.org/1999/xlink" width="32" height="32"><defs><style type="text/css"></style></defs><path d="M512 64C264.577 64 64 264.576 64 512s200.577 448 448 448c247.424 0 448-200.576 448-448S759.424 64 512 64zM496 255.5c26.743 0 48.5 21.757 48.5 48.5s-21.757 48.5-48.5 48.5-48.5-21.757-48.5-48.5S469.257 255.5 496 255.5zM575.999 768.5 448.001 768.5c-17.921 0-32.501-14.579-32.501-32.5s14.58-32.5 32.501-32.5L479.5 703.5l0-222-31.51 0c-17.915 0-32.49-14.58-32.49-32.5s14.575-32.5 32.49-32.5l64.508 0c17.684 0 32.002 14.327 32.002 32.001L544.5 703.5l31.499 0c17.921 0 32.501 14.579 32.501 32.5S593.92 768.5 575.999 768.5z" p-id="6879"></path></svg>