<?xml version="1.0" standalone="no"?><!DOCTYPE svg PUBLIC "-//W3C//DTD SVG 1.1//EN" "http://www.w3.org/Graphics/SVG/1.1/DTD/svg11.dtd"><svg t="1500862737931" class="icon" style="" viewBox="0 0 1024 1024" version="1.1" xmlns="http://www.w3.org/2000/svg" p-id="2774" xmlns:xlink="http://www.w3.org/1999/xlink" width="48" height="48"><defs><style type="text/css"></style></defs><path d="M848.311629 547.468816 263.84927 547.468816l217.7043 217.717603c13.606903 13.5936 13.606903 35.640732 0 49.234331-13.5936 13.606903-35.640732 13.606903-49.234331 0L156.563802 538.666336c-0.236384-0.223081-0.38988-0.50142-0.61296-0.75213-6.727215-6.337335-10.989285-15.278985-10.989285-25.264407 0-2.855024 0.446162-5.598508 1.086751-8.259104 1.434675-6.183839 4.456498-12.089339 9.289574-16.908088l277.829679-277.829679c13.70514-13.70514 35.919071-13.70514 49.610908 0 13.70514 13.690814 13.70514 35.905768 0 49.610908l-218.567971 218.567971 584.100108 0c19.234063 0 34.819017 15.584953 34.819017 34.819017S867.545692 547.468816 848.311629 547.468816z" p-id="2775"></path></svg>