<svg t="1501463037262" class="icon" style="" viewBox="0 0 1024 1024" version="1.1" xmlns="http://www.w3.org/2000/svg" p-id="6199" xmlns:xlink="http://www.w3.org/1999/xlink" width="48" height="48"><defs><style type="text/css"></style></defs><path d="M468.982053 175.542857C308.067767 175.542857 176.410624 307.2 176.410624 468.114286s131.657143 292.571429 292.571429 292.571428 292.571429-131.657143 292.571428-292.571428S629.896338 175.542857 468.982053 175.542857z m538.331428 740.205714l-90.697143-90.697142c-23.405714-23.405714-64.365714-23.405714-90.697143 0-23.405714 23.405714-23.405714 64.365714 0 90.697142l90.697143 90.697143c11.702857 11.702857 29.257143 17.554286 43.885715 17.554286 17.554286 0 32.182857-5.851429 43.885714-17.554286 11.702857-11.702857 17.554286-29.257143 17.554286-43.885714 2.925714-17.554286-2.925714-35.108571-14.628572-46.811429zM896.136338 286.72C822.993481 114.102857 653.302053 0 466.056338 0 278.810624 0 109.119195 114.102857 35.976338 286.72S3.793481 661.211429 135.450624 792.868571c181.394286 181.394286 476.891429 181.394286 658.285714 0 134.582857-131.657143 175.542857-330.605714 102.4-506.148571z m-178.468571 430.08c-67.291429 67.291429-157.988571 105.325714-251.611429 105.325714-93.622857 0-184.32-38.034286-251.611428-105.325714-137.508571-137.508571-137.508571-362.788571 0-503.222857 137.508571-137.508571 362.788571-137.508571 503.222857 0 67.291429 67.291429 105.325714 157.988571 105.325714 251.611428 0 93.622857-38.034286 184.32-105.325714 251.611429z" p-id="6200"></path></svg>