<svg t="1500516800076" class="icon" style="" viewBox="0 0 1024 1024" version="1.1" xmlns="http://www.w3.org/2000/svg" p-id="9813" xmlns:xlink="http://www.w3.org/1999/xlink" width="48" height="48"><defs><style type="text/css"></style></defs><path d="M726.630026 770.200158C649.585295 837.171141 548.9559 877.714286 438.857143 877.714286 196.483037 877.714286 0 681.231249 0 438.857143 0 196.483037 196.483037 0 438.857143 0 681.231249 0 877.714286 196.483037 877.714286 438.857143 877.714286 550.074023 836.343474 651.628234 768.151593 728.970032L987.817908 948.636347C999.129536 959.947972 999.053651 978.396687 987.628026 989.822312 976.122742 1001.327593 957.762815 1001.33295 946.442062 990.012194L726.630026 770.200158ZM438.857143 819.2C648.914701 819.2 819.2 648.914701 819.2 438.857143 819.2 228.799585 648.914701 58.514286 438.857143 58.514286 228.799585 58.514286 58.514286 228.799585 58.514286 438.857143 58.514286 648.914701 228.799585 819.2 438.857143 819.2Z" p-id="9814"></path></svg>