<svg t="1500515738110" class="icon" style="" viewBox="0 0 1024 1024" version="1.1" xmlns="http://www.w3.org/2000/svg" p-id="2795" xmlns:xlink="http://www.w3.org/1999/xlink" width="32" height="32"><defs><style type="text/css"></style></defs><path d="M683.101401 612.69333l174.739766-169.592536-240.98861-35.406394-107.917872-218.138182-107.928105 218.138182-240.978377 35.406394 174.729533 169.592536-41.679261 240.414535 215.856209-113.638153 215.283158 113.638153L683.101401 612.69333zM984.035288 408.840502c0 8.565073-5.13802 17.703197-14.849196 27.40414L761.906212 638.398782l49.108464 285.512662c0.562818 2.855024 0.562818 6.2831 0.562818 11.43033 0 18.839067-7.992021 28.550243-23.403013 28.550243-7.429203 0-14.848173-2.292206-22.850427-6.856152l-256.389368-134.769426-256.399601 134.769426c-8.565073 4.563946-15.994276 6.856152-22.840194 6.856152-15.994276 0-23.986297-12.5662-23.986297-28.550243l1.13587-11.43033 49.118698-285.512662L48.098973 436.243619c-9.711176-10.273994-14.275121-19.412119-14.275121-27.40414 0-14.275121 10.847046-22.850427 31.978319-26.26827l286.658765-41.689495 128.486326-259.827677c14.275121-31.405267 41.689495-31.405267 55.964616 0l128.48735 259.827677 286.658765 41.689495C973.187219 385.989051 984.035288 394.564357 984.035288 408.840502z" p-id="2796"></path></svg>